<svg width="128" height="128" viewBox="0 0 128 128" fill="none" xmlns="http://www.w3.org/2000/svg">
  <path d="M64 16C40.8 16 22 34.8 22 58C22 81.2 40.8 100 64 100C87.2 100 106 81.2 106 58C106 34.8 87.2 16 64 16Z" fill="#2a9d89" />
  <path d="M64 100C40.8 100 22 81.2 22 58C22 34.8 40.8 16 64 16C87.2 16 106 34.8 106 58C106 81.2 87.2 100 64 100ZM64 18C41.9 18 24 35.9 24 58C24 80.1 41.9 98 64 98C86.1 98 104 80.1 104 58C104 35.9 86.1 18 64 18Z" fill="#fff" />
  <path d="M64 8C63.1 8 62.3 8.4 61.7 9L54 16.7C53.4 17.3 53 18.1 53 19C53 19.9 53.4 20.7 54 21.3L61.7 29C62.3 29.6 63.1 30 64 30C64.9 30 65.7 29.6 66.3 29L74 21.3C74.6 20.7 75 19.9 75 19C75 18.1 74.6 17.3 74 16.7L66.3 9C65.7 8.4 64.9 8 64 8Z" fill="#2a9d89" />
</svg>